# xmcd
# 
# Track frame offsets:
#     150
#     40739
#     72327
#     91619
#     116816
#     135199
#     153500
#     187429
# 
# Disc length: 2886
# 
# Revision: 5
# Processed by: cddbd v1.5.2PL0 Copyright (c) Steve Scherf et al.
# Submitted via: fre:ac v1.0.31
# 
DISCID=680b4408
DTITLE=Joe Bonamassa - British Blues Explosion Live [CD 1)
DYEAR=2018
DGENRE=Blues
TTITLE0=Beck's Bolero - Rice Pudding
TTITLE1=Mainline Florida
TTITLE2=Boogie With Stu
TTITLE3=Let Me Love You Baby
TTITLE4=Plynth (Water Down The Drain)
TTITLE5=Spanish Booots
TTITLE6=Double Crossing Time
TTITLE7=Motherless Children
EXTD=Release-Date: 18.05.2018\nRecorded Live 07.07.2016 at Greenwich Music Time at The Old Royal Naval College\n\nMARO\n
EXTT0=
EXTT1=
EXTT2=
EXTT3=
EXTT4=
EXTT5=
EXTT6=
EXTT7=
PLAYORDER=
